<svg id="Layer_1" data-name="Layer 1" xmlns="http://www.w3.org/2000/svg" viewBox="0 0 416.87 391.84"><defs><style>.cls-1{fill:#0e0e0e;}.cls-2{fill:#070100;}.cls-3{fill:#ee3c23;}</style></defs><path class="cls-1" d="M535.33,365.72H332v-59.5H748.89v59.5H535.33Zm186.22,32.76c-17.94,9-43.57,16.5-74.32,21.75-29.9,5.13-64.49,8-101.65,8H535.33c-37.16,0-71.76-2.87-101.66-8-30.75-5.25-56.38-12.75-74.32-21.75C341.84,389.73,332,379.6,332,368.72H748.89C748.89,379.6,739.06,389.73,721.55,398.48Z" transform="translate(-332.01 -306.22)"/><path class="cls-1" d="M748.89,431.24v59.5H332v-59.5H748.89Zm0,62.51v59.5H332v-59.5H748.89Z" transform="translate(-332.01 -306.22)"/><path class="cls-2" d="M332.65,634.83h16.48c1.48,11.55,10.86,18.85,25.87,18.85,12.19,0,18.62-5.32,18.62-14.29,0-8.36-5.76-11.7-14.87-14.89l-15.28-5.17c-11-3.8-28.14-9.27-28.14-30.1,0-17.48,12.73-30.24,33.5-30.24,22.65,0,37.12,13.83,38.33,36.32H390.81c-.67-12-8.44-20.06-22.51-20.06-10.32,0-17,4.86-17,13.07,0,9.27,8.17,11.55,17.28,14.9l14.21,5C396,612.94,410,618.42,410,638.48c0,19.3-13.53,31.46-35,31.46C350.34,669.94,333.86,656,332.65,634.83Z" transform="translate(-332.01 -306.22)"/><path class="cls-2" d="M464.37,698.06V656.72a25.15,25.15,0,0,1-22.78,13.22c-19.16,0-33-17.63-33-43,0-24.93,13.53-42.26,32.43-42.26,11.25,0,20.5,5.93,24.92,15.2l1.48-12.77h12.73v111Zm0-71.28c0-16-8-27.06-19.56-27.06-11.79,0-20,11.25-20,27.36s8,27.66,19.7,27.66S464.37,643.19,464.37,626.78Z" transform="translate(-332.01 -306.22)"/><path class="cls-2" d="M485,640.45V587.1h15.81v52.59c0,9.12,5.63,14.44,14.07,14.44,10.85,0,17.29-8,17.42-18.39V587.1h15.81v80.56H535.39l-1.2-11.7a24.48,24.48,0,0,1-22.52,14C494.79,669.94,485,657.93,485,640.45Z" transform="translate(-332.01 -306.22)"/><path class="cls-2" d="M550.53,645.32c.14-18.85,16.62-22.8,30.42-24.62,10.72-1.37,18.63-1.83,18.76-8.21-.13-7.91-5.49-13.07-14.6-13.07-9.38,0-16.08,5.77-17,14.13h-16c1.47-17,14.87-28.88,33.23-28.88,19.17,0,29.75,11.86,29.75,29v36.48c0,2.28,1.07,3.5,3.49,3.5h3.88v14H615c-7.24,0-11.66-3.34-12.87-9.42a17.44,17.44,0,0,1-.67-2.74c-4.15,8.67-11.92,13.83-24,13.83C561.12,669.33,550.4,660.37,550.53,645.32Zm49.18-7.9V626.17c-2.68,4.71-9.51,5.77-17,6.84-8.84,1.21-16.21,2.58-16.21,11.09,0,7,5,11.1,14.2,11.1C591.54,655.2,599.71,648.21,599.71,637.42Z" transform="translate(-332.01 -306.22)"/><path class="cls-2" d="M622.76,667.66V587.1h12.73l1.87,15.81c4.56-10.94,12.87-16.72,24.66-16.72h2.68v17.48H662c-14.74,0-23.45,9-23.45,24.17v39.82Z" transform="translate(-332.01 -306.22)"/><path class="cls-2" d="M659.2,627.69c0-26.6,15.41-43,35.25-43,20.1,0,33.5,16,33.9,42.11V631H675c1.07,14.14,8.84,23.71,20.9,23.71,8.17,0,14.34-4.56,16.75-12.61h15.41c-3.62,17.32-15.54,27.81-32.29,27.81C674.08,669.94,659.2,652.31,659.2,627.69Zm52.8-9.27c-2-11.56-8.31-18.55-17.55-18.55s-16.35,7-18.76,18.55Z" transform="translate(-332.01 -306.22)"/><path class="cls-3" d="M727.54,657.93c0-6.53,4.43-11.55,10.19-11.55s10.32,5,10.32,11.55c0,6.69-4.43,11.71-10.32,11.71S727.54,664.62,727.54,657.93Z" transform="translate(-332.01 -306.22)"/></svg>